<?xml version="1.0" standalone="no"?>
<!DOCTYPE svg PUBLIC "-//W3C//DTD SVG 20010904//EN"
 "http://www.w3.org/TR/2001/REC-SVG-20010904/DTD/svg10.dtd">
<svg version="1.0" xmlns="http://www.w3.org/2000/svg"
 width="1024.000000pt" height="1024.000000pt" viewBox="0 0 1024.000000 1024.000000"
 preserveAspectRatio="xMidYMid meet">

<g transform="translate(0.000000,1024.000000) scale(0.100000,-0.100000)"
fill="#000000" stroke="none">
<path d="M1932 6038 l3 -1193 600 0 c668 0 701 3 875 68 217 82 346 210 418
416 23 66 26 91 26 191 -1 97 -5 128 -28 197 -34 105 -111 221 -180 272 -57
43 -147 91 -171 91 -28 0 -15 15 47 50 151 87 238 255 238 460 0 172 -55 307
-174 425 -85 84 -179 134 -319 170 -147 37 -290 45 -835 45 l-502 0 2 -1192z
m1098 701 c57 -12 111 -53 138 -103 11 -21 16 -55 16 -106 0 -88 -23 -143 -78
-185 -63 -48 -108 -55 -363 -55 l-233 0 0 230 0 230 235 0 c132 0 256 -5 285
-11z m57 -914 c117 -35 186 -127 186 -253 1 -117 -59 -193 -183 -234 -57 -18
-96 -21 -322 -26 l-258 -4 0 266 0 266 263 0 c204 0 275 -3 314 -15z"/>
<path d="M4107 7223 c-4 -3 -7 -111 -7 -240 l0 -233 560 0 c308 0 560 -3 560
-6 0 -3 -254 -345 -565 -760 l-565 -754 0 -195 0 -195 958 0 c527 0 961 2 963
4 2 2 3 115 1 250 l-3 246 -565 2 -564 3 560 749 560 749 0 194 0 193 -943 0
c-519 0 -947 -3 -950 -7z"/>
<path d="M6290 6035 l0 -1195 290 0 290 0 0 415 0 415 143 0 142 0 250 -415
250 -415 318 0 c174 0 317 2 317 4 0 3 -127 204 -281 448 -155 244 -283 448
-286 454 -2 6 19 21 47 32 139 58 260 169 329 302 62 119 85 220 85 375 0 316
-134 540 -399 670 -191 94 -293 105 -977 105 l-518 0 0 -1195z m1115 700 c114
-29 173 -96 196 -219 12 -69 -1 -167 -31 -226 -26 -52 -90 -103 -153 -125 -43
-15 -94 -19 -299 -23 l-248 -4 0 306 0 306 238 0 c181 0 252 -4 297 -15z"/>
<path d="M2410 4434 c-228 -44 -396 -209 -462 -453 -28 -102 -30 -313 -5 -416
29 -115 90 -228 160 -298 170 -170 471 -215 697 -104 118 58 227 189 256 310
l6 27 -85 0 -85 0 -30 -52 c-87 -154 -242 -222 -420 -184 -92 19 -160 56 -218
118 -177 190 -177 586 0 776 188 201 538 166 638 -63 l23 -55 87 0 87 0 -16
53 c-24 80 -50 126 -112 190 -104 110 -198 147 -376 152 -66 2 -131 1 -145 -1z"/>
<path d="M7954 4286 c-3 -8 -4 -59 -2 -115 l3 -101 -72 0 -73 0 0 -70 0 -70
69 0 69 0 4 -317 c3 -298 5 -321 24 -363 27 -56 53 -84 107 -111 49 -25 158
-36 200 -20 25 10 27 14 27 71 l0 60 -55 0 c-31 0 -69 7 -86 16 -55 28 -59 53
-59 374 l0 290 95 0 95 0 0 70 0 70 -95 0 -95 0 0 115 0 115 -75 0 c-56 0 -77
-4 -81 -14z"/>
<path d="M3530 4079 c-237 -46 -385 -302 -341 -587 40 -256 256 -423 500 -385
233 36 380 225 381 488 0 325 -242 542 -540 484z m194 -150 c78 -29 139 -99
167 -191 30 -99 24 -249 -13 -328 -51 -110 -131 -162 -248 -161 -169 0 -272
111 -287 308 -14 182 60 330 189 374 70 24 125 24 192 -2z"/>
<path d="M4640 4079 c-70 -14 -146 -56 -190 -106 l-40 -46 0 72 0 71 -75 0
-75 0 0 -475 0 -476 78 3 77 3 5 325 c5 309 6 327 27 365 46 86 114 125 215
125 103 -1 175 -46 215 -135 16 -35 18 -77 20 -360 l3 -320 75 -3 75 -3 0 318
c0 343 -6 397 -55 492 -58 116 -210 180 -355 150z"/>
<path d="M6446 4080 c-284 -72 -423 -447 -276 -746 120 -246 472 -310 675
-123 39 36 104 129 105 149 0 3 -35 4 -77 2 -75 -3 -79 -5 -118 -42 -51 -50
-109 -70 -199 -70 -82 0 -142 23 -194 73 -44 42 -82 117 -89 175 l-5 47 345
-2 346 -3 6 33 c9 45 -12 189 -36 249 -44 111 -130 198 -236 238 -66 25 -188
34 -247 20z m219 -154 c28 -13 62 -36 77 -52 34 -37 65 -108 70 -159 l3 -40
-274 -3 -274 -2 7 41 c15 92 101 202 178 226 62 20 158 15 213 -11z"/>
<path d="M7480 4063 c-28 -10 -66 -37 -102 -74 l-58 -57 0 69 0 69 -80 0 -80
0 0 -475 0 -475 79 0 80 0 3 318 3 317 31 55 c22 38 46 64 79 85 42 26 58 30
146 33 l99 4 0 74 0 74 -77 -1 c-44 0 -98 -8 -123 -16z"/>
<path d="M5150 4066 c0 -4 87 -228 287 -741 l79 -200 84 0 84 0 48 120 c26 66
110 279 187 473 l139 353 -80 -3 -80 -3 -146 -373 c-80 -205 -148 -370 -151
-366 -3 3 -70 171 -148 372 l-141 367 -81 3 c-45 2 -81 1 -81 -2z"/>
</g>
</svg>
